<svg width="40" height="32" viewBox="0 0 40 32" fill="none" xmlns="http://www.w3.org/2000/svg">
<g clip-path="url(#clip0_27_1135)">
<path d="M0 13.1794C0.0431374 13.0479 0.0914112 12.9185 0.129413 12.786C0.416996 11.7784 1.03016 11.0318 1.97816 10.5901C2.2678 10.4545 2.32736 10.2974 2.32634 10.0119C2.31607 7.45648 2.32018 4.90213 2.3212 2.34778C2.3212 1.37822 2.75874 0.944791 3.73652 0.943764C5.90572 0.943764 8.07491 0.949926 10.2441 0.943764C10.4873 0.933558 10.729 0.985548 10.9465 1.09482C11.1639 1.20409 11.3499 1.36703 11.4869 1.56823C15.3213 6.69542 19.1599 11.8205 23.0025 16.9436C23.117 17.0914 23.184 17.2705 23.1946 17.4572C23.2062 21.1417 23.2089 24.8261 23.2028 28.5106C23.2028 28.5866 23.1905 28.6626 23.1822 28.7664H13.8112C14.1193 26.7728 13.6468 25.0144 12.2212 23.5673C11.1079 22.4375 9.73673 21.8818 8.14681 21.852C4.80982 21.7873 1.6762 24.9405 2.39515 28.7499C0.875074 28.8732 0.443699 28.8526 0.00308112 27.8964V24.5071C0.0270899 24.4764 0.0451987 24.4416 0.0564882 24.4043C0.318394 21.9609 2.53484 19.4292 6.00329 19.499C8.86371 19.5555 11.7272 19.5103 14.5887 19.5103H15.0878L4.70403 5.66936C4.627 7.57665 4.64241 9.43772 4.61159 11.2978C4.60527 11.6251 4.48298 11.9396 4.26649 12.1852C4.05594 12.3906 3.68825 12.4933 3.37293 12.5436C2.65398 12.6607 2.17022 13.3006 2.34585 13.9815C2.41247 14.2518 2.57303 14.4895 2.79881 14.6523C3.0246 14.815 3.30091 14.8922 3.57835 14.87C4.15146 14.8176 4.57256 14.379 4.62905 13.7761C4.703 12.9863 5.18779 12.5159 5.88004 12.5621C6.52915 12.6042 6.96464 13.166 6.93588 13.923C6.88144 15.3003 5.89853 16.5759 4.54483 17.0155C3.16546 17.4623 1.60225 17.0155 0.76312 15.8354C0.418021 15.3496 0.249581 14.7364 0 14.1808V13.1794Z" fill="#FFE400"/>
<path d="M39.4399 27.8931C39.18 28.5751 38.6716 28.8401 37.9609 28.7959C37.6066 28.7744 37.2491 28.7959 36.8568 28.7959C37.1485 26.9585 36.7685 25.3337 35.6007 23.9265C34.7741 22.9102 33.6165 22.2169 32.3304 21.9679C29.3745 21.3753 26.4381 23.0977 25.5106 26.1307V25.8225C25.5106 20.3153 25.5106 14.8085 25.5106 9.30194C25.5106 8.34984 25.944 7.91744 26.8972 7.91333C27.1909 7.91333 27.4847 7.91333 27.8216 7.91333C27.8308 8.08691 27.8452 8.23378 27.8452 8.38065C27.8452 10.5498 27.84 12.719 27.8452 14.8882C27.8544 17.2865 29.3776 19.0695 31.7378 19.4618C31.877 19.4844 32.0179 19.4958 32.1589 19.4957C34.5849 19.4957 37.0105 19.4957 39.4358 19.4957L39.4399 27.8931Z" fill="#FFE400"/>
<path d="M30.1962 7.91428H32.389C32.7608 7.91428 33.1326 7.92353 33.5044 7.91428C34.0991 7.89785 34.4894 8.16695 34.7523 8.69692C35.8431 10.9021 36.9492 13.1 38.0492 15.3011C38.3574 15.907 38.6542 16.514 38.9736 17.159C38.8504 17.1724 38.7579 17.1909 38.6655 17.1909C36.5743 17.1909 34.4822 17.197 32.391 17.1909C31.1144 17.1857 30.1818 16.3107 30.1654 15.034C30.1366 12.7364 30.1561 10.4388 30.1571 8.14127C30.1645 8.06474 30.1775 7.98887 30.1962 7.91428Z" fill="#FFE400"/>
<path d="M8.10468 24.1639C8.56077 24.161 9.01293 24.2484 9.43516 24.4209C9.85739 24.5933 10.2414 24.8476 10.565 25.1689C10.8887 25.4903 11.1456 25.8725 11.3211 26.2934C11.4966 26.7144 11.5871 27.166 11.5875 27.6221C11.5894 28.5431 11.2266 29.4275 10.5784 30.0819C9.93024 30.7362 9.04934 31.1074 8.12831 31.1141C7.20729 31.1107 6.32464 30.7449 5.67118 30.0958C5.01771 29.4468 4.64594 28.5667 4.63623 27.6457C4.63622 26.7246 5.00122 25.841 5.6513 25.1884C6.30138 24.5358 7.18357 24.1674 8.10468 24.1639Z" fill="#FFE400"/>
<path d="M27.6993 27.5871C27.704 27.131 27.7988 26.6803 27.9784 26.2609C28.1579 25.8416 28.4186 25.462 28.7455 25.1438C29.0723 24.8256 29.4589 24.5752 29.8829 24.4071C30.3069 24.2389 30.76 24.1562 31.216 24.1638C33.1429 24.1998 34.6855 25.7804 34.6475 27.6805C34.6126 29.5991 33.0175 31.149 31.1205 31.1089C30.2007 31.0927 29.3247 30.7133 28.6838 30.0534C28.0428 29.3936 27.6889 28.5069 27.6993 27.5871Z" fill="#FFE400"/>
</g>
<defs>
<clipPath id="clip0_27_1135">
<rect width="39.4399" height="30.1746" fill="white" transform="translate(0 0.939453)"/>
</clipPath>
</defs>
</svg>
