<svg width="76" height="77" viewBox="0 0 76 77" fill="none" xmlns="http://www.w3.org/2000/svg">
<g clip-path="url(#clip0_110_759)">
<path d="M-7.2198e-05 41.5747C0.327769 40.998 0.831383 40.7235 1.48312 40.605C2.66809 40.3878 3.83528 40.1133 5.12887 39.8387C4.38827 38.7584 3.7069 37.769 3.02752 36.7756C2.30469 35.719 2.34222 35.3003 3.24674 34.3938C4.31124 33.3254 5.37574 32.2549 6.45011 31.1944C7.19664 30.4577 7.66668 30.4202 8.54356 31.0127C9.58436 31.7177 10.6192 32.4346 11.7667 33.2207C12.0234 32.0021 12.2604 30.8784 12.4954 29.7546C12.7719 28.4275 12.9437 28.2478 14.2373 27.991C14.4566 25.072 15.0787 22.236 16.311 19.558C19.1141 13.4672 23.6519 9.23096 29.9244 6.84918C32.984 5.67888 36.2683 5.21441 39.5325 5.49041C39.8839 5.53533 40.2408 5.50465 40.5794 5.40043C40.9179 5.2962 41.2303 5.12084 41.4956 4.88608C42.2638 4.22644 43.1052 3.65371 43.9169 3.04542C45.1196 2.14484 45.6292 2.22187 46.5495 3.44041C47.3513 4.50688 48.1525 5.57533 48.953 6.64576C49.3124 7.12962 49.743 7.49103 50.3848 7.35476C51.0642 7.21257 51.3368 6.71883 51.4276 6.075C51.6409 4.58193 51.8502 3.08887 52.0932 1.59976C52.2512 0.624135 52.8022 0.242969 53.762 0.377266L60.6644 1.35289C61.806 1.51484 62.2049 2.06782 62.0469 3.27057C61.8494 4.66488 61.6519 6.06117 61.4544 7.45351C61.3577 8.08944 61.4386 8.65428 62.0469 9.00385C62.6552 9.35341 63.1825 9.11642 63.6841 8.73525C64.8296 7.87022 65.9777 7.0098 67.1284 6.15399C68.0251 5.49239 68.6729 5.58323 69.3483 6.47591C70.7373 8.30866 72.1198 10.1519 73.4957 12.0058C74.1968 12.9518 74.102 13.5403 73.1461 14.2671C72.0244 15.1203 70.896 15.9655 69.7611 16.8029C69.2259 17.1979 68.8585 17.6679 69.06 18.3829C69.2574 19.0544 69.7927 19.2499 70.4207 19.3328C71.8407 19.5303 73.2607 19.7278 74.6787 19.9352C75.7432 20.0912 76.1559 20.6778 75.9999 21.7521C75.6708 24.0036 75.3456 26.2544 75.0243 28.5045C74.8545 29.6993 74.3528 30.0845 73.1619 29.9107C71.7439 29.7132 70.3239 29.5157 68.9039 29.3044C68.2996 29.2155 67.7624 29.3044 67.4089 29.8613C67.0554 30.4182 67.2233 30.987 67.6064 31.5005C68.4583 32.6249 69.3048 33.7519 70.1462 34.8816C70.9144 35.9125 70.8394 36.503 69.8361 37.2515C68.0205 38.5919 66.2108 39.9368 64.407 41.2864C63.4195 42.0211 62.827 41.9342 62.0864 40.9605C61.2332 39.8387 60.3866 38.7117 59.5466 37.5794C59.1674 37.0659 58.7152 36.7005 58.0457 36.8645C57.3367 37.0363 57.1155 37.607 57.0266 38.2588C56.8304 39.6807 56.6296 41.1007 56.4242 42.5187C56.2761 43.5437 55.7784 43.9604 54.7534 43.8242C52.4243 43.5187 50.0991 43.1896 47.7779 42.8367C46.6403 42.6649 46.3125 42.2008 46.4586 41.0356C46.6206 39.736 46.82 38.4405 47.0017 37.1429C47.0314 36.9237 47.1301 36.6749 47.063 36.4853C46.9109 36.0468 46.7727 35.5333 46.4527 35.2391C46.034 34.8441 45.4652 35.0021 45.0189 35.3378C43.8458 36.2068 42.6825 37.0876 41.5114 37.9606C40.4568 38.7505 39.8663 38.6656 39.0822 37.6228C37.7419 35.8454 36.4061 34.0679 35.075 32.2905C34.3226 31.2813 34.4134 30.6809 35.4226 29.9205C36.5483 29.0733 37.6721 28.2221 38.8077 27.3847C39.3291 26.9996 39.649 26.5197 39.4713 25.862C39.2994 25.236 38.7998 25.0009 38.1856 24.918C36.7893 24.7323 35.395 24.523 34.0007 24.3255C32.7466 24.1418 32.3654 23.6639 32.5372 22.4157C32.8493 20.1393 33.1784 17.8648 33.5247 15.5923C33.6886 14.5278 34.2317 14.1486 35.2844 14.2967C36.7281 14.4942 38.1737 14.6917 39.6135 14.9267C40.2356 15.0274 40.7589 14.9267 41.1065 14.3777C41.4541 13.8286 41.3238 13.2954 40.9485 12.7977C40.0835 11.6523 39.2086 10.5147 38.3811 9.34946C38.1046 8.95447 37.9367 8.49826 37.6148 7.8643C36.3982 8.02032 34.9644 8.08549 33.5879 8.40149C26.1009 10.1197 20.7724 14.5357 18.049 21.7028C15.3078 28.9192 16.3742 35.7921 20.8791 42.0882C22.4235 44.2468 24.4044 45.9532 26.6064 47.4048C28.3385 48.5423 29.6163 50.0591 30.1791 52.0716C30.4133 52.9528 30.5458 53.858 30.5741 54.7693C30.6373 56.3019 30.5741 57.8384 30.5939 59.371C30.6077 61.0872 31.5912 62.1142 33.3055 62.1359C36.5457 62.1636 39.7873 62.1636 43.0301 62.1359C44.7543 62.1221 45.722 61.105 45.7319 59.3828C45.7319 57.874 45.7141 56.3651 45.7319 54.8562C45.7812 51.8109 47.0116 49.3679 49.502 47.5786C50.4895 46.8735 51.4533 46.1487 52.5 45.3785L54.1669 47.2448C53.211 47.9637 52.344 48.6964 51.4019 49.3106C49.188 50.7484 48.1689 52.7589 48.242 55.3796C48.2835 56.7621 48.2539 58.1445 48.242 59.527C48.242 61.2511 47.5212 62.6138 46.1762 63.6882C45.9198 63.9188 45.7638 64.2407 45.7417 64.5849C45.7042 66.6131 45.7299 68.6434 45.72 70.6716C45.7042 73.8533 43.593 75.9882 40.4271 76.0198C38.9156 76.033 37.4061 76.033 35.8986 76.0198C32.7387 75.9902 30.6097 73.8474 30.584 70.6874C30.5662 68.6335 30.5958 66.5796 30.5603 64.5276C30.5369 64.2066 30.3878 63.9079 30.1456 63.6961C29.4969 63.2145 28.9706 62.5871 28.609 61.8646C28.2474 61.1421 28.0607 60.3448 28.064 59.5369C28.0422 58.4487 28.064 57.3644 28.064 56.0728C27.4596 56.6653 26.9639 57.1472 26.4721 57.633C25.5558 58.5395 25.147 58.581 24.0904 57.8582C23.1029 57.1788 22.1154 56.4955 21.0292 55.7529C20.7349 57.1156 20.4723 58.3638 20.1958 59.608C19.9805 60.5777 19.6033 60.8858 18.598 60.8897C17.1129 60.8897 15.6284 60.8897 14.1445 60.8897C13.1965 60.8897 12.8015 60.5658 12.5942 59.6396C12.3157 58.3914 12.055 57.1393 11.7568 55.7509C10.7693 56.4244 9.86678 57.0425 8.96225 57.6646C7.52449 58.6521 7.30527 58.6324 6.06895 57.396C5.08147 56.4086 4.10584 55.4408 3.13219 54.4553C2.36789 53.6831 2.3284 53.217 2.94655 52.3026C3.63976 51.2796 4.34087 50.2645 5.119 49.1249C3.91625 48.8702 2.80041 48.6194 1.68061 48.4041C0.97753 48.2698 0.337647 48.0703 -0.0158691 47.3771L-7.2198e-05 41.5747ZM63.5755 38.7525L67.6064 35.7229C66.8638 34.7355 66.1746 33.829 65.5031 32.9106C64.486 31.5281 64.3299 30.0469 65.2048 28.5381C66.0126 27.1556 67.559 26.5236 69.3048 26.7962C70.3733 26.964 71.4496 27.1023 72.607 27.2662C72.8479 25.5934 73.0849 23.972 73.3278 22.3032C72.9328 22.236 72.5872 22.1787 72.2495 22.1254C71.2956 21.9773 70.3358 21.8825 69.3937 21.685C68.7155 21.5646 68.0874 21.2478 67.5875 20.7739C67.0876 20.2999 66.7378 19.6897 66.5814 19.0188C66.1864 17.5751 66.5261 16.2539 67.6814 15.2467C68.6867 14.3777 69.7749 13.6075 70.8789 12.7543C70.0138 11.5989 69.1725 10.4752 68.3292 9.35341C68.1851 9.15592 68.0251 8.97817 67.8454 8.76093C66.8441 9.50746 65.8961 10.254 64.9047 10.9334C63.2437 12.0867 61.2155 11.8932 59.908 10.5147C58.8435 9.39489 58.7626 8.05982 58.9917 6.63588C59.1437 5.68988 59.2682 4.7419 59.4143 3.7248L54.4315 3.02172C54.2538 4.20669 54.076 5.30477 53.9299 6.40284C53.7008 8.11907 52.7923 9.28626 51.1254 9.76025C49.5455 10.2244 48.0564 9.61608 46.9247 8.12499C46.2552 7.24416 45.5936 6.34754 44.9043 5.44104L40.8814 8.47653C41.6358 9.48376 42.3448 10.4041 43.0262 11.3442C44.0136 12.7266 44.1677 14.198 43.2869 15.6535C42.406 17.109 41.0374 17.66 39.3508 17.431C38.2093 17.269 37.0678 17.1169 35.8729 16.955C35.6359 18.6495 35.4068 20.2729 35.1738 21.9319C36.4002 22.1076 37.522 22.2676 38.6438 22.4335C40.8162 22.7534 42.1987 24.4203 42.0288 26.569C41.938 27.7856 41.2922 28.6882 40.3363 29.4011C39.4337 30.0726 38.5371 30.752 37.6089 31.4531C38.545 32.7052 39.4179 33.8724 40.2928 35.0357C40.3936 35.1719 40.5101 35.2944 40.6543 35.4642C41.6042 34.7532 42.5305 34.0581 43.4626 33.3668C44.3948 32.6756 45.4376 32.3477 46.6008 32.6065C48.7614 33.0844 49.9128 34.931 49.5494 37.2752C49.3855 38.3358 49.2492 39.4003 49.0972 40.4944L54.076 41.1916C54.232 40.052 54.3762 39.0191 54.5125 37.9981C54.7613 36.1081 55.7666 34.8599 57.388 34.4313C58.9798 34.0126 60.4255 34.5854 61.5788 36.1021C62.2306 36.9553 62.8803 37.8263 63.5755 38.7525ZM17.8969 58.3243C18.1043 57.3506 18.2919 56.4323 18.4993 55.5198C19.0147 53.2704 20.8495 52.5574 22.7612 53.8549C23.5314 54.3783 24.2977 54.9076 25.1312 55.4764C25.8994 54.6864 26.5946 53.9102 27.355 53.2072C27.7499 52.8477 27.7203 52.5693 27.5268 52.1269C26.6479 50.0966 24.6749 49.277 23.1128 47.9795C20.8672 51.7832 17.1603 52.5219 14.423 51.801C11.346 50.9853 8.97212 48.3192 8.84375 45.0625C8.66601 40.5398 11.1525 37.9408 15.3927 36.8961L14.4566 32.9738C14.3993 33.1279 14.3578 33.2167 14.3321 33.3076C13.6468 35.8217 11.9819 36.4319 9.83122 34.9547L7.68446 33.4833C6.9478 34.2338 6.27236 34.9211 5.60088 35.6123C5.54673 35.6843 5.49915 35.761 5.45869 35.8414C6.00773 36.6433 6.57651 37.4471 7.11765 38.2687C8.25324 39.9948 7.51264 41.8611 5.51399 42.3291C4.52651 42.5582 3.54891 42.7597 2.56736 42.973V45.9769C3.50349 46.1744 4.39814 46.3719 5.28884 46.5694C7.62126 47.0986 8.32434 48.9393 6.9636 50.9142C6.45209 51.6608 5.9386 52.4073 5.49226 53.0551L7.75951 55.4112C8.54949 54.872 9.33946 54.323 10.1294 53.7898C11.9247 52.591 13.791 53.3276 14.2768 55.425C14.4961 56.3829 14.6955 57.3447 14.9068 58.3243H17.8969ZM16.787 49.4824C18.3946 49.4212 19.9173 48.5206 20.8988 46.7017C21.1121 46.3067 21.0628 46.0578 20.7586 45.7399C19.1964 44.1066 17.8515 42.3015 16.9094 40.2456C16.5362 39.4358 16.0464 39.3845 15.3295 39.5504C14.1354 39.8106 13.0773 40.4978 12.354 41.4829C11.6308 42.468 11.292 43.6833 11.4013 44.9005C11.6521 47.5213 13.6883 49.4113 16.787 49.4824ZM43.2158 69.7592H33.1435C33.1435 70.2411 33.1179 70.6618 33.1435 71.0785C33.2443 72.4392 34.2357 73.4484 35.5984 73.4781C37.3245 73.5189 39.0526 73.5189 40.7826 73.4781C41.4083 73.4683 42.007 73.2212 42.4573 72.7867C42.9076 72.3521 43.1759 71.7627 43.2079 71.1377C43.2296 70.6953 43.2059 70.251 43.2059 69.7592H43.2158ZM33.1771 67.1227H43.1842V64.7073H33.1771V67.1227Z" fill="#005693"/>
<path d="M16.6292 0C17.4843 3.33766 18.3375 6.6773 19.2104 10.088L16.7872 10.7319C15.9261 7.37446 15.0749 4.04272 14.2197 0.691232L16.3448 0H16.6292Z" fill="#005693"/>
<path d="M39.4002 53.2644H37.0303C36.8032 52.3105 36.6649 51.329 36.3311 50.4185C35.9941 49.444 35.4563 48.551 34.7524 47.7975C34.0485 47.0439 33.1943 46.4466 32.245 46.044C29.6064 44.9045 27.2108 43.4529 25.2141 41.3456C18.4993 34.2555 19.078 22.4651 26.488 16.1156C27.1792 15.5231 27.9198 14.984 28.7177 14.3579C29.1858 15.0946 29.6124 15.766 30.0725 16.4948C29.5788 16.872 29.1048 17.2117 28.6525 17.581C19.8739 24.7363 21.6711 38.5036 32.0099 43.1408C34.1073 44.0769 36.025 45.1869 37.3858 47.0749C38.7045 48.8682 39.4108 51.0385 39.4002 53.2644Z" fill="#005693"/>
<path d="M3.3811 8.91685L4.85441 6.87476L13.6785 13.1729L12.2111 15.2268L3.3811 8.91685Z" fill="#005693"/>
<path d="M1.90394 24.2524L1.29565 21.8054L11.3679 19.2854L11.9762 21.7304L1.90394 24.2524Z" fill="#005693"/>
<path d="M60.0798 55.5395L61.6874 53.6001L69.2554 59.9022L67.6419 61.8396L60.0798 55.5395Z" fill="#005693"/>
<path d="M57.0326 65.8942H54.6389V57.1294H57.0326V65.8942Z" fill="#005693"/>
<path d="M70.95 47.0492V49.4705H62.1931V47.0492H70.95Z" fill="#005693"/>
<path d="M36.967 59.5388V55.8713H39.3943V59.5388H36.967Z" fill="#005693"/>
<path d="M64.3163 22.153C64.3043 24.8183 63.2385 27.3706 61.3514 29.2528C59.4644 31.1351 56.9094 32.1944 54.2441 32.1996C48.7004 32.1996 44.1185 27.6236 44.1382 22.0898C44.1492 19.4123 45.2215 16.8484 47.12 14.9603C49.0185 13.0721 51.5882 12.0139 54.2658 12.0176C55.592 12.0204 56.9046 12.2851 58.1282 12.7965C59.3519 13.3079 60.4625 14.056 61.3963 14.9977C62.3301 15.9394 63.0688 17.0563 63.5699 18.2842C64.071 19.5121 64.3246 20.8268 64.3163 22.153ZM61.7923 22.1254C61.7955 20.1269 61.0083 18.2082 59.6024 16.7879C58.1965 15.3675 56.2859 14.5607 54.2875 14.5435C50.1243 14.5277 46.6622 17.9721 46.6721 22.1155C46.684 26.2254 50.1362 29.6736 54.2401 29.6796C58.3441 29.6855 61.7824 26.2491 61.7923 22.1254Z" fill="#005693"/>
</g>
<defs>
<clipPath id="clip0_110_759">
<rect width="76" height="76.0257" fill="white"/>
</clipPath>
</defs>
</svg>
