<svg width="21" height="34" viewBox="0 0 21 34" fill="none" xmlns="http://www.w3.org/2000/svg">
<g clip-path="url(#clip0_27_1067)">
<path d="M9.88267 34C9.21048 33.8756 8.5273 33.7998 7.87157 33.6159C6.59554 33.27 5.4058 32.6678 4.377 31.8472C3.3482 31.0265 2.50255 30.005 1.89313 28.8468C1.13571 27.4679 0.745816 25.9219 0.759992 24.3537C0.759992 21.3322 0.732556 18.3079 0.790173 15.2863C0.836815 12.9194 1.78887 10.8852 3.42409 9.16477C4.60214 7.91892 6.10002 7.0104 7.75908 6.53544C7.84139 6.5111 7.92644 6.49757 8.01424 6.47864C7.68774 8.1693 7.8798 9.85186 7.84413 11.529C7.81944 12.611 7.80023 13.6931 7.87706 14.748C7.8939 15.354 8.06791 15.9457 8.3825 16.4666C8.69709 16.9875 9.14178 17.4202 9.67416 17.7236C9.69336 17.7236 9.70982 17.7534 9.73177 17.7561C10.3491 17.8372 10.3134 18.27 10.3079 18.7272C10.2915 20.1203 10.3079 21.5161 10.3079 22.9119C10.3079 22.9877 10.3079 23.0661 10.3079 23.1446C10.3244 23.5557 10.5302 23.8046 10.8567 23.8154C11.1832 23.8262 11.4301 23.5449 11.4328 23.1364C11.4328 21.5134 11.4328 19.8904 11.4328 18.2673C11.4328 18.1077 11.4328 17.9968 11.6331 17.9157C12.7827 17.5153 13.4165 16.647 13.7211 15.5352C13.844 15.0642 13.9058 14.5797 13.9049 14.0934C13.9232 12.0898 13.9232 10.0854 13.9049 8.08004C13.9049 7.55796 13.8089 7.03588 13.754 6.48675C14.5464 6.67664 15.3056 6.98207 16.0065 7.39295C18.624 8.90508 20.2565 11.1178 20.8244 14.0636C20.9336 14.6735 20.9869 15.2919 20.9835 15.9112C21 18.6704 21.0165 21.4268 20.9835 24.1833C20.9396 27.9704 19.2468 30.8648 15.927 32.7962C14.7922 33.4346 13.5321 33.8266 12.2312 33.9459C12.1215 33.9459 12.0118 33.9838 11.902 34.0027L9.88267 34Z" fill="#FFE400"/>
<path d="M11.6002 6.41913H10.1049C10.1049 6.26494 10.0857 6.12698 10.0747 5.98632C10.0061 4.94216 9.51228 4.34705 8.46695 4.15228C7.86936 4.05657 7.26651 3.99605 6.66162 3.97104C5.47635 3.8953 4.28286 3.898 3.09485 3.76275C1.23465 3.54905 0.128956 2.32095 0.0192094 0.476095C0.0192094 0.324611 3.58466e-06 0.173124 -0.0109711 0H1.49256C1.51725 0.243456 1.53371 0.47339 1.56664 0.700616C1.66815 1.45262 2.06873 2.00446 2.82323 2.17488C3.50227 2.31554 4.19102 2.40596 4.88372 2.44538C6.09917 2.53195 7.33382 2.49948 8.53829 2.6672C10.5576 2.94311 11.6606 4.2686 11.6002 6.41913Z" fill="#FFE400"/>
<path d="M12.3849 11.0638C12.4122 11.8882 12.2091 12.7043 11.7977 13.4226C11.271 14.2639 10.4259 14.2882 9.95401 13.4226C9.53615 12.7101 9.31614 11.9016 9.31614 11.0786C9.31614 10.2556 9.53615 9.44716 9.95401 8.73469C10.4314 7.86366 11.2627 7.8826 11.795 8.73469C12.2047 9.44295 12.4088 10.2487 12.3849 11.0638Z" fill="#FFE400"/>
</g>
<defs>
<clipPath id="clip0_27_1067">
<rect width="21" height="34" fill="white"/>
</clipPath>
</defs>
</svg>
