<svg width="49" height="74" viewBox="0 0 49 74" fill="none" xmlns="http://www.w3.org/2000/svg">
<g clip-path="url(#clip0_110_738)">
<path d="M24.4111 55.3932L21.1403 65.742C20.4273 68.0036 19.7122 70.2642 18.9951 72.5237C18.5492 73.9206 17.6044 74.142 16.5568 73.0881C14.8668 71.3856 13.1706 69.6863 11.5024 67.9589C11.3597 67.7849 11.1706 67.6551 10.957 67.5844C10.7433 67.5137 10.514 67.5052 10.2958 67.5598C7.94163 68.015 5.58439 68.4422 3.22715 68.8756C1.66813 69.1625 1.04453 68.436 1.51847 66.9175C3.62627 60.2075 5.74134 53.4995 7.86369 46.7936C8.09717 46.1294 8.12649 45.4105 7.94787 44.7295C7.57682 43.3014 7.30555 41.8422 7.05299 40.3861C7.00493 40.0462 6.87361 39.7234 6.6707 39.4465C6.46779 39.1696 6.19959 38.9472 5.88996 38.799C4.64274 38.138 3.43606 37.4395 2.21691 36.7473C0.109114 35.5469 -0.542554 33.542 0.455219 31.3313C1.01958 30.0841 1.57771 28.815 2.18573 27.5896C2.36369 27.2669 2.45703 26.9043 2.45703 26.5357C2.45703 26.1672 2.36369 25.8046 2.18573 25.4818C1.56212 24.2003 0.975931 22.8939 0.395975 21.5905C-0.539437 19.5014 0.12782 17.4872 2.11713 16.3491C3.37994 15.6257 4.64275 14.9086 5.92114 14.2164C6.21812 14.0697 6.47477 13.8527 6.66878 13.5843C6.86278 13.3158 6.98826 13.004 7.03429 12.676C7.29932 11.195 7.60488 9.72326 7.92604 8.25467C8.10825 7.27576 8.66139 6.40501 9.47006 5.82407C10.2787 5.24312 11.2805 4.99685 12.2664 5.13663C13.71 5.29876 15.1568 5.44843 16.6004 5.64486C16.9705 5.71331 17.3518 5.68749 17.7093 5.56979C18.0668 5.45209 18.3889 5.24629 18.6459 4.97137C19.628 4.00478 20.657 3.10055 21.6766 2.16513C23.457 0.540635 25.5866 0.546871 27.3764 2.16513C28.3929 3.10055 29.4218 4.01413 30.4071 4.97137C30.6516 5.23082 30.9559 5.42644 31.2934 5.54113C31.631 5.65582 31.9915 5.68608 32.3434 5.62928C33.812 5.43596 35.2837 5.28005 36.7523 5.1148C37.725 4.9857 38.7105 5.22973 39.5105 5.7978C40.3106 6.36587 40.8658 7.21584 41.0646 8.17671C41.3982 9.6952 41.6289 11.2386 42.0218 12.7415C42.1826 13.2868 42.5233 13.7616 42.9884 14.0885C44.1608 14.8587 45.4142 15.4948 46.6396 16.1807C48.9376 17.4685 49.5893 19.4235 48.5105 21.7932C47.9274 23.0654 47.3537 24.3469 46.7519 25.6128C46.6114 25.8846 46.538 26.1861 46.538 26.4921C46.538 26.7981 46.6114 27.0996 46.7519 27.3714C47.3755 28.7059 47.9918 30.0487 48.6009 31.3999C49.5363 33.5264 48.8753 35.5406 46.8485 36.7005C45.6013 37.4208 44.326 38.1442 43.0445 38.8333C42.761 38.977 42.5164 39.1869 42.3313 39.4453C42.1462 39.7036 42.0261 40.0028 41.9813 40.3175C41.6476 42.0168 41.2548 43.7037 40.9118 45.403C40.8736 45.6738 40.9014 45.9498 40.9929 46.2075C43.136 53.0401 45.2854 59.8707 47.441 66.6992C47.4877 66.8458 47.5345 66.9923 47.575 67.1389C47.9149 68.3299 47.3038 69.0752 46.0721 68.885C44.535 68.648 43.0102 68.3393 41.4793 68.0618C40.9971 68.0125 40.5203 67.9207 40.0543 67.7874C38.592 67.2386 37.5599 67.6845 36.5652 68.8662C35.2993 70.3629 33.8338 71.6912 32.4463 73.085C31.4142 74.1233 30.4632 73.8863 30.0174 72.4613C28.2692 67.0173 26.5345 61.5555 24.8133 56.076C24.7385 55.8422 24.6512 55.6115 24.5701 55.3776L24.4111 55.3932ZM36.9924 45.4747C37.9777 45.5059 38.5171 45.0662 38.7198 44.0685C39.0036 42.6934 39.2842 41.3215 39.5305 39.9402C39.6257 39.2555 39.8853 38.604 40.2871 38.0414C40.6889 37.4789 41.221 37.022 41.8378 36.7099C43.0539 36.0676 44.245 35.3723 45.4454 34.6956C46.6459 34.019 46.8049 33.4484 46.2623 32.2417C45.6824 30.9665 45.1149 29.685 44.5069 28.4221C44.2035 27.8273 44.0469 27.1685 44.0502 26.5007C44.0534 25.833 44.2164 25.1757 44.5256 24.5838C45.1492 23.2961 45.726 21.9927 46.3122 20.6925C46.7986 19.6106 46.596 18.9807 45.5764 18.3977C44.3572 17.7023 43.1412 16.9977 41.9033 16.3429C41.2722 16.031 40.7267 15.5697 40.3143 14.9992C39.9018 14.4286 39.6349 13.766 39.5367 13.0689C39.2998 11.7126 39.016 10.3656 38.7416 9.01547C38.5109 7.86491 37.9528 7.45644 36.796 7.58428C35.237 7.75578 33.653 7.94598 32.0784 8.09876C31.5175 8.15645 30.9509 8.08843 30.4196 7.89966C29.8883 7.71088 29.4058 7.40609 29.0071 7.00745C27.92 6.00344 26.8276 5.00255 25.7301 4.00478C24.8414 3.19408 24.1554 3.20344 23.2574 4.02348C22.1848 5.00567 21.1091 5.98785 20.0459 6.9825C19.6283 7.39822 19.1225 7.71467 18.566 7.90843C18.0096 8.1022 17.4166 8.16831 16.8312 8.10188C15.3096 7.93974 13.788 7.76201 12.2664 7.59364C11.0472 7.45956 10.5047 7.85244 10.2677 9.04353C9.9933 10.4186 9.71268 11.7936 9.46012 13.1718C9.35439 13.8422 9.09091 14.4779 8.69138 15.0265C8.29185 15.5751 7.76772 16.0209 7.16213 16.3273C5.91491 17.0039 4.66769 17.7148 3.42048 18.4226C2.42271 18.9932 2.21691 19.6199 2.68149 20.652C3.28639 21.999 3.90689 23.3429 4.5305 24.6805C4.8158 25.2534 4.96428 25.8848 4.96428 26.5248C4.96428 27.1649 4.8158 27.7962 4.5305 28.3691C3.90689 29.685 3.31134 31.007 2.71268 32.3322C2.22314 33.4079 2.43205 34.0315 3.461 34.6146L7.39286 36.8346C7.90232 37.1044 8.34472 37.4851 8.6874 37.9487C9.03009 38.4122 9.26432 38.9468 9.37282 39.513C9.68462 41.0097 9.9746 42.5126 10.277 44.0092C10.5078 45.1411 11.0784 45.5683 12.2289 45.4498C13.6508 45.297 15.0726 45.138 16.4851 44.9446C17.1284 44.8319 17.7894 44.8737 18.4134 45.0667C19.0374 45.2597 19.6066 45.5983 20.0739 46.0547C21.1403 47.0462 22.2098 48.0325 23.2824 49.0137C24.1897 49.8431 24.8414 49.84 25.755 49.0137C26.8494 48.0159 27.9376 47.0026 29.0227 46.0048C29.4768 45.5722 30.0255 45.2515 30.6252 45.068C31.2249 44.8845 31.8591 44.8433 32.4775 44.9478C33.9866 45.1629 35.5113 45.297 36.9924 45.4747ZM17.2022 70.1072L22.9488 51.8792C22.3626 51.4052 21.8543 51.0248 21.3897 50.6039C20.4543 49.7527 19.4908 48.8983 18.5835 48.0097C18.3301 47.7634 18.0232 47.579 17.6868 47.4709C17.3504 47.3627 16.9935 47.3337 16.6441 47.3861C14.5051 47.5451 12.3911 48.2934 10.1773 47.6636C8.24408 53.8092 6.31401 59.9362 4.34965 66.1816C6.33896 65.8199 8.18484 65.558 9.98083 65.1246C11.3029 64.8128 12.2321 65.0591 13.1488 66.0912C14.3804 67.4818 15.7991 68.7291 17.2022 70.1072ZM31.7946 70.1072C33.204 68.7415 34.6227 67.5193 35.8481 66.1286C36.7835 65.0654 37.7719 64.7161 39.0815 65.1651C39.1294 65.1819 39.1783 65.1955 39.228 65.2057L44.669 66.1816L38.8726 47.7852C38.1114 47.88 37.3447 47.9237 36.5777 47.9161C35.1808 47.8132 33.7715 47.6511 32.4027 47.4266C32.0412 47.3563 31.6678 47.3786 31.3172 47.4915C30.9667 47.6043 30.6504 47.8041 30.3978 48.072C29.0071 49.3754 27.5759 50.6382 26.0824 51.9883C27.9563 57.9001 29.8708 63.9865 31.7946 70.0823V70.1072Z" fill="#005693"/>
<path d="M24.5016 42.7963C20.187 42.7939 16.0498 41.079 12.9986 38.0284C9.94746 34.9779 8.23182 30.841 8.22852 26.5264C8.22728 24.3851 8.64861 22.2645 9.46835 20.2863C10.2881 18.308 11.4901 16.511 13.0056 14.9981C14.5211 13.4853 16.3202 12.2863 18.2998 11.47C20.2795 10.6536 22.4008 10.236 24.5421 10.2409C28.855 10.25 32.988 11.9705 36.0333 15.0246C39.0787 18.0787 40.7873 22.2166 40.784 26.5295C40.7798 30.8452 39.0626 34.9827 36.0095 38.0329C32.9564 41.083 28.8172 42.7963 24.5016 42.7963ZM24.5016 40.3456C28.1692 40.3406 31.6847 38.8795 34.2754 36.2835C36.8662 33.6875 38.3201 30.1691 38.3176 26.5015C38.318 24.6854 37.9605 22.8871 37.2654 21.2093C36.5703 19.5315 35.5514 18.0071 34.2668 16.7234C32.9822 15.4397 31.4572 14.4218 29.7789 13.7278C28.1006 13.0339 26.3021 12.6776 24.486 12.6792C22.6699 12.6796 20.8717 13.038 19.1943 13.7338C17.5168 14.4296 15.9929 15.4493 14.7098 16.7344C13.4266 18.0196 12.4094 19.5451 11.7162 21.2237C11.023 22.9022 10.6675 24.701 10.6699 26.5171C10.6708 28.3339 11.0294 30.1327 11.7254 31.8109C12.4215 33.4891 13.4412 35.0138 14.7265 36.2979C16.0117 37.582 17.5373 38.6003 19.2161 39.2948C20.8949 39.9893 22.6941 40.3464 24.5109 40.3456H24.5016Z" fill="#005693"/>
<path d="M17.433 32.0671C17.5328 31.2751 17.6949 30.2929 17.7666 29.3045C17.777 28.9656 17.6665 28.634 17.4548 28.3691C16.8811 27.6863 16.2232 27.0782 15.6245 26.4141C15.2562 26.038 14.9983 25.568 14.8788 25.0553C14.7593 24.5426 14.7828 24.007 14.9469 23.5068C15.1109 23.0066 15.4092 22.5611 15.8091 22.2187C16.209 21.8764 16.6952 21.6505 17.2147 21.5655C18.0628 21.3909 18.9328 21.3005 19.7653 21.0791C20.1373 20.9681 20.4606 20.7339 20.682 20.415C21.1497 19.6885 21.502 18.8903 21.9292 18.1388C23.1484 16.0341 25.8704 16.0435 27.0833 18.1606C27.5136 18.9121 27.8659 19.7197 28.3305 20.4337C28.5585 20.751 28.8889 20.98 29.2659 21.0823C30.1016 21.3005 30.9715 21.3941 31.8196 21.5687C32.3319 21.6566 32.8107 21.8818 33.2052 22.2203C33.5997 22.5588 33.895 22.9978 34.0597 23.4908C34.2245 23.9838 34.2525 24.5122 34.1408 25.0198C34.0291 25.5274 33.7819 25.9953 33.4254 26.3736C32.9325 26.9599 32.4012 27.513 31.8352 28.0292C31.5766 28.2337 31.3839 28.5099 31.2813 28.8232C31.1788 29.1365 31.1708 29.4731 31.2584 29.7909C31.4182 30.5903 31.5223 31.3999 31.5702 32.2137C31.6793 34.4836 29.5247 35.9335 27.4419 35.0199C26.6281 34.6582 25.8517 34.2092 25.0254 33.8787C24.6838 33.7556 24.31 33.7556 23.9684 33.8787C23.1172 34.2186 22.3221 34.6894 21.474 35.0448C19.4379 35.8929 17.3675 34.4618 17.433 32.0671ZM19.89 32.1326C19.8744 32.8154 20.0864 32.9745 20.682 32.7094C21.4708 32.3509 22.241 31.9705 23.0205 31.5776C23.4721 31.3336 23.9774 31.2059 24.4907 31.2059C25.004 31.2059 25.5092 31.3336 25.9608 31.5776C26.7372 31.9642 27.5198 32.354 28.2994 32.7125C28.923 32.9963 29.1693 32.8279 29.1038 32.1326C29.0134 31.219 28.8856 30.3117 28.7546 29.4012C28.6795 28.9331 28.7189 28.4538 28.8693 28.0042C29.0197 27.5546 29.2767 27.1481 29.6183 26.8194C30.2045 26.2145 30.8031 25.619 31.3644 24.9892C31.5328 24.8021 31.7323 24.4653 31.6762 24.2907C31.6201 24.1161 31.2521 23.9789 30.9996 23.9166C30.1515 23.7326 29.2971 23.6047 28.4428 23.4426C27.9875 23.3729 27.5556 23.1949 27.1834 22.9236C26.8112 22.6523 26.5096 22.2956 26.3038 21.8836C25.8953 21.1166 25.5025 20.3433 25.0566 19.5981C24.9321 19.363 24.7223 19.1845 24.4704 19.0992C24.3301 19.0742 24.0775 19.3736 23.9622 19.5762C23.5194 20.3495 23.1141 21.1353 22.6869 21.9304C22.4828 22.3301 22.1872 22.676 21.8242 22.9398C21.4612 23.2037 21.041 23.3781 20.5978 23.4488C19.6936 23.6079 18.7862 23.7606 17.8882 23.9446C17.1835 24.088 17.0806 24.403 17.5764 24.9299C18.1813 25.5878 18.8236 26.2208 19.4316 26.8662C19.7602 27.1907 20.0067 27.5887 20.1509 28.0273C20.2952 28.4659 20.3329 28.9326 20.261 29.3887C20.1239 30.3023 20.0054 31.2408 19.8931 32.1357L19.89 32.1326Z" fill="#005693"/>
</g>
<defs>
<clipPath id="clip0_110_738">
<rect width="49" height="72.8" fill="white" transform="translate(0 0.942871)"/>
</clipPath>
</defs>
</svg>
