<svg width="61" height="59" viewBox="0 0 61 59" fill="none" xmlns="http://www.w3.org/2000/svg">
<g clip-path="url(#clip0_110_713)">
<path d="M23.5929 50.8155C24.0462 50.8155 24.4141 50.8073 24.7721 50.8155C25.371 50.8198 25.945 51.0559 26.3736 51.4742C26.8023 51.8924 27.0524 52.4604 27.0715 53.059C27.1054 54.0795 27.1136 55.0999 27.0961 56.1204C27.0993 56.4285 27.0405 56.734 26.9232 57.019C26.806 57.3039 26.6327 57.5623 26.4136 57.7789C26.1945 57.9956 25.9342 58.1659 25.6479 58.28C25.3617 58.394 25.0555 58.4494 24.7475 58.4427C19.6659 58.492 14.5849 58.5347 9.50448 58.5708C8.01483 58.5807 7.0409 57.6248 7.01462 56.1401C6.99327 55.2007 6.9867 54.2612 7.00312 53.3234C7.02776 51.9471 7.98855 50.9912 9.36488 50.9518C9.44635 50.9576 9.52812 50.9576 9.60959 50.9518C9.98406 50.8877 10.6689 50.8533 10.6821 50.7416C10.7527 50.1322 10.9071 49.5065 10.3257 48.9349C7.6535 46.3252 5.04539 43.6514 2.38472 41.0301C0.734119 39.4058 -0.0690097 37.4842 0.00325547 35.1586C0.201985 28.8354 0.399065 22.5122 0.530456 16.1873C0.583013 13.6597 2.97105 12.0617 4.96491 12.3753C6.26897 12.5806 7.13286 13.3509 7.72741 14.471C8.53054 15.9788 8.65865 17.6261 8.65701 19.2865C8.65701 22.6534 8.61759 26.0203 8.60445 29.3872C8.60445 29.806 8.65372 30.2265 8.68821 30.78C9.44536 29.8898 10.2485 29.3363 11.3062 29.246C11.8558 29.192 12.4105 29.2605 12.9305 29.4465C13.4504 29.6325 13.9227 29.9314 14.3134 30.3217C16.3467 32.2368 18.2847 34.2635 20.4477 36.0225C22.6107 37.7815 23.5863 39.9067 23.588 42.592C23.588 45.06 23.588 47.5291 23.588 49.9992L23.5929 50.8155ZM21.5333 50.845C21.5333 47.5915 21.5744 44.4315 21.5103 41.2748C21.501 40.7399 21.3792 40.213 21.1528 39.7283C20.9265 39.2436 20.6006 38.8119 20.1964 38.4614C17.6918 36.2475 15.0541 34.1797 12.8402 31.6488C12.3048 31.0362 11.3144 31.0362 10.7051 31.5141C10.0612 32.0265 9.92657 32.828 10.3848 33.5967C10.5353 33.8392 10.7133 34.0635 10.9153 34.2651C12.221 35.579 13.5431 36.8929 14.8455 38.2069C15.289 38.6569 15.3021 39.2268 14.9244 39.6292C14.8352 39.7291 14.7258 39.8091 14.6036 39.8639C14.4813 39.9186 14.3488 39.947 14.2148 39.947C14.0809 39.947 13.9484 39.9186 13.8261 39.8639C13.7039 39.8091 13.5945 39.7291 13.5053 39.6292C11.725 37.8061 9.92657 35.9978 8.22177 34.1058C7.0721 32.8346 6.61223 31.248 6.62701 29.5301C6.64015 28.1855 6.64563 26.8393 6.64344 25.4915C6.64344 22.8801 6.64343 20.2703 6.60073 17.6589C6.58267 16.7195 6.3593 15.7964 5.77954 15.0147C5.21456 14.2608 4.38843 14.0801 3.55738 14.522C2.86922 14.8866 2.52924 15.4351 2.50953 16.2432C2.3442 22.5434 2.16409 28.8441 1.96919 35.1454C1.91335 36.9291 2.52104 38.3892 3.79061 39.639C6.58267 42.3884 9.33038 45.1788 12.1126 47.9347C12.5363 48.3535 12.7695 48.7953 12.7236 49.3932C12.6907 49.8744 12.7236 50.3589 12.7236 50.8434L21.5333 50.845ZM17.0365 56.5934V56.4719C19.5001 56.4719 21.9636 56.4604 24.4354 56.4801C24.9709 56.4801 25.163 56.2978 25.1384 55.7673C25.1023 54.9724 25.1072 54.1775 25.1187 53.3825C25.1187 52.9374 24.9446 52.765 24.4995 52.7699C19.5263 52.8192 14.5532 52.8608 9.58003 52.8947C9.13166 52.8947 8.95264 53.0803 8.96249 53.5172C8.97727 54.2908 8.99698 55.066 8.96249 55.8395C8.94114 56.4275 9.16451 56.6148 9.75412 56.6082C12.1849 56.5852 14.6107 56.6016 17.0365 56.6016V56.5934Z" fill="#005693"/>
<path d="M50.3081 50.9453C50.7548 50.9453 51.1999 50.9338 51.6433 50.9453C52.9802 50.983 53.9575 51.9307 53.9903 53.2692C54.0149 54.2678 54.0084 55.2713 53.9575 56.2682C53.8852 57.6675 52.926 58.5676 51.5284 58.5676C46.4271 58.5369 41.3253 58.4942 36.2229 58.4395C34.8877 58.4263 33.9236 57.454 33.9039 56.1056C33.8891 55.1054 33.9039 54.1052 33.9269 53.1066C33.9339 52.5083 34.173 51.9361 34.5936 51.5106C35.0143 51.085 35.5837 50.8394 36.1819 50.8254C36.5646 50.8106 36.9472 50.8254 37.4055 50.8254C37.4055 50.5248 37.4055 50.285 37.4055 50.0469C37.4268 47.2548 37.4055 44.4627 37.4859 41.6625C37.4957 40.6789 37.7242 39.7099 38.1549 38.8256C38.5855 37.9413 39.2075 37.1639 39.9758 36.5497C42.3441 34.5788 44.6796 32.5784 46.7539 30.2791C48.0958 28.8009 50.446 28.8715 51.8601 30.2938C51.9735 30.4072 52.0819 30.5271 52.297 30.7537C52.3348 30.2134 52.3939 29.7847 52.3923 29.356C52.3791 25.9891 52.3479 22.6222 52.3397 19.2537C52.3397 17.6754 52.4662 16.1118 53.1609 14.655C53.9722 12.9716 55.3338 12.1734 57.0304 12.3704C57.9313 12.4666 58.7679 12.8825 59.3883 13.5428C60.0088 14.203 60.372 15.0638 60.4121 15.9689C60.5763 21.0685 60.7208 26.1682 60.8719 31.2678C60.9097 32.5521 60.9327 33.8381 60.9902 35.1225C61.0953 37.4464 60.2724 39.3779 58.6284 41.0039C56.1024 43.5003 53.6273 46.0493 51.0652 48.5063C50.3458 49.1977 50.088 49.9023 50.3081 50.9453ZM48.2699 50.8352C48.2929 50.4479 48.2929 50.0597 48.2699 49.6724C48.1762 48.866 48.5014 48.301 49.073 47.7409C51.7977 45.0704 54.4682 42.3441 57.1897 39.6686C58.4921 38.3875 59.1096 36.888 59.0374 35.0584C58.9257 32.245 58.8731 29.4299 58.7844 26.6149C58.6749 23.0859 58.5655 19.5575 58.456 16.0297C58.4313 15.2561 57.9173 14.6402 57.1289 14.3873C56.7991 14.2636 56.437 14.2562 56.1025 14.3664C55.7679 14.4767 55.4811 14.6978 55.2894 14.9933C54.9816 15.3984 54.7633 15.8641 54.6489 16.3598C54.4576 17.3796 54.351 18.4134 54.3303 19.4508C54.3073 22.7159 54.3303 25.9809 54.3779 29.246C54.4075 31.2169 53.8638 32.9709 52.5335 34.413C50.901 36.1802 49.2044 37.8883 47.516 39.6029C47.0512 40.0743 46.4435 40.048 46.0526 39.6193C45.6831 39.2153 45.7094 38.6487 46.1545 38.2003C46.8114 37.5319 47.5012 36.8864 48.1631 36.2294C48.9104 35.4772 49.6708 34.7332 50.3754 33.9416C51.08 33.15 51.0488 32.1908 50.3754 31.5897C49.702 30.9886 48.6887 31.0756 47.9759 31.8295C47.6129 32.2154 47.2828 32.6375 46.8919 32.9923C45.0344 34.679 43.1916 36.3855 41.2831 38.0114C40.076 39.0396 39.4552 40.2993 39.4338 41.8431C39.3911 44.7403 39.401 47.6375 39.3911 50.5363C39.4006 50.6384 39.4187 50.7395 39.4453 50.8385L48.2699 50.8352ZM43.8995 56.4719V56.5951C46.345 56.5951 48.7905 56.577 51.236 56.6082C51.8388 56.6082 52.0309 56.4078 52.0129 55.833C51.9882 55.1005 52.0014 54.3663 52.0375 53.6338C52.0671 53.0689 51.8322 52.8849 51.2837 52.8882C49.7349 52.898 48.1861 52.8636 46.6373 52.8521C43.2754 52.8241 39.9134 52.8061 36.5498 52.7667C36.0423 52.7667 35.86 52.9473 35.8764 53.4466C35.8994 54.2005 35.9027 54.9576 35.8583 55.7082C35.8238 56.2978 36.0373 56.4883 36.6253 56.4834C39.0495 56.4719 41.4753 56.4719 43.8995 56.4719Z" fill="#005693"/>
<path d="M14.3791 15.0574C14.3791 12.832 14.3938 10.6082 14.3791 8.38272C14.3791 7.67814 14.6386 7.26097 15.3004 6.98012C20.1389 4.92713 24.9703 2.85663 29.7945 0.768604C30.0147 0.665187 30.255 0.611572 30.4983 0.611572C30.7416 0.611572 30.9819 0.665187 31.2021 0.768604C36.0482 2.85663 40.8982 4.93699 45.752 7.00969C46.2956 7.24126 46.6307 7.5681 46.6274 8.19056C46.6077 12.5774 46.7374 16.9724 46.542 21.3527C46.1971 29.1277 40.7936 35.7679 33.3634 38.105C30.6781 38.9509 28.272 38.422 25.8413 37.4087C18.8743 34.5033 14.4398 27.7892 14.3889 20.0864C14.3708 18.4046 14.3791 16.7261 14.3791 15.0574ZM44.599 15.4532H44.6483C44.6483 13.392 44.6385 11.3308 44.6565 9.27126C44.6565 8.85573 44.5613 8.6143 44.1408 8.45006C39.7343 6.58266 35.3392 4.68406 30.9311 2.81666C30.6573 2.71398 30.3557 2.71398 30.082 2.81666C25.6557 4.69063 21.241 6.59416 16.8164 8.47141C16.4583 8.62416 16.3434 8.81796 16.345 9.20063C16.3598 12.873 16.322 16.547 16.3631 20.2194C16.4419 27.2554 20.6169 33.329 27.0468 35.7614C28.4642 36.2984 29.8865 36.8453 31.4911 36.5185C38.606 35.0683 44.241 28.5956 44.5843 21.3248C44.6828 19.3736 44.5974 17.4126 44.5974 15.4532H44.599Z" fill="#005693"/>
<path d="M5.72045 6.5613C5.31314 6.5613 4.89926 6.58429 4.50016 6.5613C3.89083 6.51531 3.53443 6.14249 3.5295 5.59722C3.52122 5.46859 3.53988 5.33965 3.58427 5.21864C3.62867 5.09764 3.69783 4.98723 3.78734 4.89448C3.87684 4.80173 3.98472 4.72868 4.10407 4.68C4.22341 4.63132 4.3516 4.60809 4.48044 4.61178C5.31313 4.58058 6.14912 4.58222 6.98345 4.61178C7.11192 4.60757 7.23991 4.62937 7.35975 4.67585C7.47958 4.72233 7.58879 4.79254 7.68083 4.88227C7.77286 4.972 7.84582 5.0794 7.89532 5.19802C7.94482 5.31665 7.96984 5.44405 7.96889 5.57258C7.96889 6.10471 7.60427 6.50546 7.00808 6.55801C6.58435 6.59086 6.15404 6.55801 5.72702 6.55801L5.72045 6.5613Z" fill="#005693"/>
<path d="M12.4806 6.56299C12.0733 6.56299 11.6594 6.58598 11.2603 6.56299C10.6197 6.51864 10.2518 6.13104 10.265 5.56113C10.2781 4.99122 10.6395 4.63482 11.2504 4.61347C12.0634 4.58555 12.8797 4.58719 13.6927 4.61347C14.2938 4.63318 14.6781 5.02407 14.6978 5.55127C14.7175 6.07848 14.325 6.51864 13.7009 6.56134C13.2952 6.58598 12.8862 6.56299 12.4806 6.56299Z" fill="#005693"/>
<path d="M53.0903 2.22547C53.0903 2.65249 53.1182 3.08115 53.0903 3.50653C53.089 3.62946 53.0635 3.75093 53.0151 3.86394C52.9667 3.97696 52.8964 4.07929 52.8084 4.16507C52.7203 4.25085 52.6162 4.31837 52.5019 4.36376C52.3877 4.40915 52.2656 4.43151 52.1426 4.42956C52.0147 4.43728 51.8865 4.41845 51.7662 4.37427C51.6459 4.33008 51.536 4.26149 51.4435 4.17281C51.3509 4.08412 51.2777 3.97725 51.2285 3.85892C51.1792 3.74058 51.1549 3.61334 51.1572 3.48518C51.1227 2.63278 51.1227 1.77545 51.1572 0.923054C51.157 0.800033 51.1814 0.678209 51.229 0.564793C51.2767 0.451377 51.3466 0.348674 51.4347 0.262763C51.5227 0.176853 51.6271 0.10948 51.7417 0.0646333C51.8562 0.0197867 51.9786 -0.00162265 52.1016 0.00167285C52.6452 -0.00982388 53.0246 0.34986 53.0969 0.944406C53.1021 0.984715 53.1048 1.0253 53.1051 1.06594V2.22547H53.0903Z" fill="#005693"/>
<path d="M48.7675 6.54324C48.3208 6.54324 47.8708 6.57609 47.4273 6.54324C47.3046 6.5386 47.1841 6.50971 47.0726 6.45823C46.9612 6.40675 46.861 6.3337 46.7779 6.2433C46.6949 6.1529 46.6305 6.04694 46.5886 5.93154C46.5467 5.81614 46.5281 5.69358 46.5338 5.57095C46.5301 5.44809 46.551 5.32573 46.5952 5.21105C46.6394 5.09636 46.706 4.99166 46.7913 4.90308C46.8765 4.8145 46.9785 4.74383 47.0914 4.69522C47.2043 4.64661 47.3258 4.62104 47.4487 4.62C48.3027 4.58223 49.1584 4.58387 50.0108 4.62C50.1395 4.61708 50.2674 4.64082 50.3865 4.68974C50.5056 4.73867 50.6132 4.81171 50.7027 4.90427C50.7922 4.99683 50.8615 5.10691 50.9064 5.22758C50.9513 5.34825 50.9707 5.4769 50.9634 5.60544C50.966 5.72809 50.9444 5.85005 50.8998 5.96434C50.8552 6.07863 50.7885 6.183 50.7036 6.27149C50.6186 6.35997 50.517 6.43082 50.4046 6.47999C50.2922 6.52916 50.1712 6.55568 50.0486 6.55802C49.6248 6.5958 49.1945 6.55802 48.7675 6.55802V6.54324Z" fill="#005693"/>
<path d="M55.4914 4.60366C55.8987 4.60366 56.3126 4.58231 56.7117 4.60366C57.3194 4.64143 57.6873 5.01261 57.6971 5.5546C57.7049 5.68241 57.6861 5.81043 57.642 5.93063C57.5979 6.05084 57.5295 6.16065 57.441 6.25317C57.3524 6.34569 57.2458 6.41892 57.1276 6.46829C57.0095 6.51765 56.8824 6.54208 56.7544 6.54004C55.902 6.57617 55.0463 6.57781 54.1939 6.54004C54.0655 6.54075 53.9383 6.51466 53.8206 6.46343C53.7028 6.41219 53.597 6.33694 53.51 6.24249C53.4229 6.14805 53.3566 6.03647 53.3151 5.91491C53.2737 5.79335 53.2581 5.66448 53.2693 5.53654C53.2873 5.01918 53.6404 4.648 54.2104 4.6053C54.6357 4.57409 55.0644 4.6053 55.4914 4.6053V4.60366Z" fill="#005693"/>
<path d="M51.149 8.9034C51.149 8.47638 51.1178 8.04608 51.149 7.62398C51.1525 7.50099 51.1808 7.37997 51.2322 7.26819C51.2836 7.15641 51.3571 7.05617 51.4482 6.97348C51.5393 6.8908 51.6462 6.82739 51.7624 6.78705C51.8786 6.74671 52.0018 6.73027 52.1246 6.73873C52.6715 6.7568 53.0345 7.06721 53.0607 7.59278C53.11 8.50583 53.11 9.42087 53.0607 10.3339C53.0295 10.8677 52.6452 11.1666 52.1016 11.1551C51.558 11.1436 51.2147 10.8381 51.1621 10.3011C51.1162 9.83957 51.1523 9.3682 51.1523 8.90012L51.149 8.9034Z" fill="#005693"/>
<path d="M10.0695 2.27305C10.0695 2.70007 10.0942 3.12874 10.0695 3.55411C10.0666 3.78218 9.97488 4.00013 9.8139 4.16172C9.65293 4.32331 9.43533 4.41583 9.20728 4.41965C8.66857 4.47221 8.22185 4.21107 8.18407 3.68386C8.11345 2.7123 8.11345 1.7369 8.18407 0.765336C8.2202 0.239771 8.65215 -0.0361503 9.19578 0.00983664C9.73941 0.0558236 10.0449 0.382659 10.0761 0.923005C10.1007 1.36974 10.0761 1.81811 10.0761 2.26648L10.0695 2.27305Z" fill="#005693"/>
<path d="M10.0711 8.98063C10.0711 9.40765 10.0941 9.83796 10.0711 10.2617C10.0727 10.3801 10.0504 10.4976 10.0057 10.6072C9.96095 10.7169 9.89463 10.8164 9.81068 10.8999C9.72672 10.9834 9.62683 11.0491 9.51696 11.0933C9.40709 11.1374 9.28948 11.159 9.17109 11.1568C8.62582 11.1929 8.21194 10.8989 8.17416 10.3783C8.10682 9.42581 8.10682 8.46976 8.17416 7.51726C8.21029 6.99334 8.62745 6.70592 9.17273 6.74206C9.29104 6.74006 9.40855 6.76188 9.51826 6.80624C9.62796 6.8506 9.72761 6.91658 9.81128 7.00025C9.89495 7.08392 9.96093 7.18358 10.0053 7.29328C10.0496 7.40298 10.0715 7.52049 10.0695 7.6388C10.0941 8.08389 10.0711 8.5339 10.0711 8.98063Z" fill="#005693"/>
<path d="M23.179 55.8052C22.8803 55.7936 22.5981 55.665 22.3934 55.4471C22.1888 55.2292 22.078 54.9395 22.0852 54.6407C22.1074 54.3531 22.237 54.0844 22.4481 53.8878C22.6592 53.6913 22.9365 53.5813 23.225 53.5797C23.3729 53.5841 23.5184 53.6179 23.6531 53.6792C23.7879 53.7404 23.909 53.8278 24.0096 53.9364C24.1102 54.0449 24.1882 54.1724 24.239 54.3113C24.2898 54.4503 24.3125 54.598 24.3057 54.7458C24.2925 55.0342 24.1674 55.3061 23.9571 55.5039C23.7468 55.7017 23.4677 55.8097 23.179 55.8052Z" fill="#005693"/>
<path d="M37.7701 53.5797C38.0584 53.5783 38.3364 53.6869 38.5473 53.8835C38.7582 54.0801 38.8861 54.3497 38.905 54.6374C38.9156 54.9365 38.807 55.2275 38.6031 55.4464C38.3992 55.6654 38.1167 55.7945 37.8177 55.8052C37.5291 55.8098 37.2499 55.7024 37.0388 55.5054C36.8278 55.3085 36.7014 55.0374 36.6861 54.7491C36.6801 54.6011 36.7035 54.4533 36.7548 54.3143C36.8062 54.1754 36.8844 54.0479 36.9851 53.9392C37.0859 53.8306 37.207 53.7429 37.3417 53.6812C37.4764 53.6195 37.622 53.585 37.7701 53.5797Z" fill="#005693"/>
<path d="M34.2766 23.3942C34.2766 24.9807 34.2766 26.4868 34.2766 27.9929C34.2766 29.0933 33.9646 29.3988 32.8477 29.4004C31.2366 29.4004 29.6254 29.4004 28.0125 29.4004C27.0682 29.4004 26.7266 29.0522 26.7233 28.1029C26.7233 26.5574 26.7233 25.0119 26.7233 23.3958H24.3615C23.5255 23.3958 22.6879 23.4057 21.8519 23.3958C21.1539 23.3843 20.7351 23.0279 20.7269 22.3726C20.7061 20.5375 20.7061 18.7019 20.7269 16.8657C20.7351 16.1939 21.1621 15.8556 21.9209 15.8507C23.2677 15.8408 24.6128 15.8507 25.9596 15.8507H26.7216V15.1592C26.7216 13.8125 26.7216 12.4657 26.7216 11.1206C26.7216 10.1959 27.0665 9.83789 27.9633 9.83461C29.656 9.82694 31.3493 9.82694 33.0432 9.83461C33.9137 9.83461 34.2668 10.1976 34.2733 11.0713C34.2815 12.4181 34.2733 13.7648 34.2733 15.11V15.8408H38.353C40.1744 15.8408 40.2796 15.9492 40.2796 17.7903C40.2796 19.2389 40.2796 20.6875 40.2796 22.1361C40.2796 23.0394 39.9215 23.3892 39.01 23.3925C37.4563 23.3975 35.9157 23.3942 34.2766 23.3942ZM38.2808 21.4233V17.8101H37.5893C36.2212 17.8101 34.8547 17.8183 33.4833 17.8101C32.6326 17.8101 32.3123 17.4717 32.3074 16.6127C32.3074 15.4713 32.3074 14.3282 32.3074 13.1867V11.858H28.6843C28.6843 13.484 28.6843 15.0525 28.6843 16.621C28.6843 17.4734 28.3558 17.7969 27.4985 17.8101C26.743 17.8199 25.9891 17.8101 25.2336 17.8101H22.7306V21.4233C24.35 21.4233 25.9185 21.4233 27.4935 21.4233C28.3542 21.4233 28.6859 21.7518 28.6909 22.596C28.6909 23.9822 28.6909 25.37 28.6909 26.7561C28.6909 26.9713 28.7089 27.1865 28.7188 27.3868H32.3123C32.3123 25.82 32.3123 24.2942 32.3123 22.7701C32.3123 21.7025 32.5899 21.4233 33.6427 21.4233C35.1684 21.4266 36.6959 21.4282 38.2775 21.4282L38.2808 21.4233Z" fill="#005693"/>
</g>
<defs>
<clipPath id="clip0_110_713">
<rect width="61" height="58.5627" fill="white"/>
</clipPath>
</defs>
</svg>
