<svg width="1920" height="398" viewBox="0 0 1920 398" fill="none" xmlns="http://www.w3.org/2000/svg">
<path opacity="0.5" d="M-159 312.828C-159 312.828 76.9535 191.46 297.832 272.512C776.865 448.232 738.057 61.3614 905.737 34.9924C1225.93 -15.4027 1365.97 592.322 1947.72 -35.7375M-156.236 323.592C-156.236 323.592 -0.913519 256.532 166.424 245.812C213.444 242.367 260.691 248.388 305.186 263.494C407.974 299.146 488.285 323.504 551.876 319.57C775.152 305.733 786.893 71.7056 916.656 34.3072C1221.7 -53.5747 1379.4 585.381 1953.41 -22.6746M-153.518 334.467C-153.518 334.467 10.5532 275.695 174.03 246.475C218.754 238.495 265.579 239.358 312.427 254.675C414.735 288.051 495.411 315.635 560.898 322.266C780.177 344.502 797.948 88.6808 927.528 33.6441C1215.33 -88.6081 1392.81 578.441 1959.05 -9.63375M-150.731 345.165C-150.731 345.165 22.4993 294.173 181.728 246.983C226.292 233.721 272.706 231.201 319.759 245.613C421.519 276.8 502.264 312.055 569.943 324.919C783.946 365.61 807.975 106.916 938.424 32.9589C1207.95 -119.928 1406.22 571.478 1964.72 3.40707M-147.967 355.951C-147.967 355.951 34.7651 312.143 189.357 247.646C233.852 229.08 279.81 223.178 327.046 236.595C428.257 265.594 508.842 308.142 578.989 327.549C787.212 385.149 817.637 126.411 949.296 32.2295C1200.94 -147.756 1419.63 564.494 1970.31 16.3816M-145.204 366.738C-145.204 366.738 46.8026 329.56 197.009 248.265C241.459 224.195 286.89 215.11 334.332 227.798C434.995 254.609 515.283 304.053 588.057 330.356C790.296 403.318 827.459 147.166 960.192 31.6548C1194.8 -172.644 1433.01 557.708 1976 29.4445M-142.44 377.502C-142.44 377.502 58.8401 346.557 204.752 248.751C249.11 219.023 294.063 206.976 341.802 218.713C441.893 243.358 521.862 299.367 597.285 332.898C793.722 420.205 838.012 168.871 971.247 30.9254C1190.09 -195.653 1446.6 550.635 1981.85 42.5074M-139.676 388.288C-139.676 388.288 70.6722 363.024 212.313 249.326C256.511 213.961 301.052 198.931 348.905 209.761C448.426 232.262 528.166 294.46 606.147 335.55C796.92 436.141 848.953 191.327 981.937 30.2402C1186.35 -217.314 1459.83 543.695 1987.31 55.5482M-136.935 399.074C-136.935 399.074 82.3442 379.314 219.965 249.923C263.935 208.612 308.11 190.885 356.192 200.788C455.142 221.167 534.79 289.2 615.215 338.202C800.757 451.149 860.968 214.425 992.832 29.5771C1183.99 -238.268 1473.24 536.755 1992.95 68.567M-134.171 409.861C-134.171 409.861 93.5593 395.449 227.594 250.52C271.335 203.307 315.191 182.84 363.478 191.814C461.834 210.093 541.643 283.785 624.261 340.855C805.006 465.671 873.851 237.656 1003.71 28.8919C1182.71 -258.89 1486.64 529.792 1998.62 81.6078M-131.407 420.669C-131.407 420.669 104.637 411.541 235.246 251.116C278.508 198.069 322.249 174.839 370.765 182.884C468.527 199.086 548.632 278.126 633.306 343.551C809.689 479.817 887.556 261.217 1014.6 28.2509C1182.35 -279.424 1500.05 522.874 2004.26 94.6707M-128.643 431.433C-128.643 431.433 115.51 427.543 242.898 251.691C285.68 192.609 329.307 166.793 378.051 173.888C475.196 188.034 555.919 272.247 642.351 346.292C814.805 493.609 902.014 284.801 1025.47 27.5436C1182.74 -300.112 1513.44 515.889 2009.95 107.667M-125.88 442.198C-125.88 442.198 126.2 443.612 250.55 252.266C292.784 187.261 336.365 158.792 385.315 164.914C481.866 177.027 563.479 266.235 651.396 348.834C820.287 507.38 917.067 308.385 1036.32 26.8585C1183.7 -321 1526.82 508.949 2015.54 120.708M-123.116 452.984C-123.116 452.984 136.753 459.615 258.202 252.863C299.842 181.912 343.423 150.79 392.624 155.963C488.559 166.042 571.177 260.134 660.465 351.486C826.18 521.061 932.736 331.903 1047.24 26.1953C1185.2 -342.153 1540.25 502.008 2021.21 133.749M-120.375 463.77C-120.375 463.77 147.191 475.794 265.83 253.459C306.945 176.563 350.459 142.811 399.933 146.989C495.228 155.078 579.148 253.946 669.464 354.139C832.347 534.721 948.771 355.332 1058.07 25.5102C1187.03 -363.504 1553.62 495.046 2026.8 146.768M-117.611 474.556C-117.611 474.556 157.539 491.974 273.482 254.034C313.843 171.236 357.517 134.832 407.22 138.037C501.898 144.137 587.303 247.712 678.578 356.858C838.88 548.425 965.285 378.673 1069.01 24.847C1189.25 -385.32 1567.07 488.106 2032.42 159.853M-114.847 485.343C-114.847 485.343 167.795 508.197 281.135 254.631C320.788 165.931 364.575 126.853 414.506 129.063C508.568 133.329 595.686 241.457 687.623 359.444C845.641 562.129 982.074 401.793 1079.93 24.1619C1191.65 -407.312 1580.45 481.165 2038.15 172.849M-112.083 496.107C-112.083 496.107 178.005 524.465 288.786 255.183C327.617 160.604 371.633 118.896 421.793 120.067C515.238 122.277 604.183 235.158 696.669 362.096C852.608 576.032 999.091 424.802 1090.78 23.4546C1194.25 -429.592 1593.86 474.203 2043.84 185.868M-109.32 506.871C-109.32 506.871 188.123 540.777 296.415 255.78C334.607 155.432 378.691 109.612 429.079 111.226C521.862 114.033 612.817 229.013 705.737 364.859C859.78 590.111 1016.38 447.812 1101.65 22.902C1197.01 -452.005 1607.27 467.351 2049.58 198.997M-106.578 517.68C-106.578 517.68 198.242 557.156 304.067 256.399C341.482 150.061 385.749 103.048 436.366 102.164C528.6 100.572 621.611 222.67 714.782 367.401C867.112 604.125 1033.72 470.512 1112.52 22.1284C1199.89 -474.837 1620.68 460.322 2055.1 211.95M-103.815 528.466C-103.815 528.466 208.316 573.578 311.719 256.974C348.266 144.778 392.807 95.1349 443.652 93.1898C535.27 89.7417 630.496 216.414 723.827 370.075C874.604 618.271 1051.24 493.167 1123.33 21.4653C1202.77 -497.78 1634 453.36 2060.65 224.968M-100.982 539.252C-100.982 539.252 218.434 590.089 319.44 257.57C355.301 139.54 399.933 87.222 451.007 84.238C542.031 78.9112 639.542 210.226 732.964 372.727C882.21 632.571 1068.87 515.712 1134.29 20.7801C1205.9 -520.922 1647.49 446.419 2066.41 238.009M-98.2869 550.016C-98.2869 550.016 228.348 606.49 327.023 258.256C362.085 134.478 406.969 79.4417 458.225 75.3747C548.678 68.1028 648.541 204.059 741.872 375.38C889.863 646.961 1086.51 538.191 1145.12 20.0949C1208.94 -544.219 1660.81 439.479 2071.98 251.05M-95.5232 560.803C-95.5232 560.803 238.398 623.001 334.652 258.742C368.915 129.063 414.027 71.4404 465.512 66.3124C555.393 57.3165 657.678 197.848 751.031 377.966C897.789 661.35 1104.41 560.471 1156.1 19.3434C1212.18 -567.759 1674.33 432.428 2077.74 263.98M-92.7823 571.589C-92.7823 571.589 248.494 639.49 342.304 259.317C375.79 123.803 421.108 63.5496 472.798 57.3165C562.109 46.5302 666.952 191.681 760.054 380.685C905.623 676.004 1122.21 582.817 1166.93 18.7245C1215.33 -591.321 1687.72 425.554 2083.36 277.087M-90.0183 582.375C-90.0183 582.375 258.362 656.111 349.956 259.913C438.467 -123 621.771 69.9373 769.099 383.359C913.572 690.592 1140.07 605.053 1177.83 18.0835C1218.53 -614.971 1701.22 418.636 2089 290.261" stroke="white" stroke-width="1.72" stroke-miterlimit="10"/>
</svg>
